<svg width="144" height="71" viewBox="0 0 144 71" fill="none" xmlns="http://www.w3.org/2000/svg">
<g clip-path="url(#clip0)">
<path d="M9.31818 32.697V13.3939H27.0909M130.591 32.697V43.0909H118.045L130.591 23.7879M2 3V52H140V3H2Z" stroke="#F4851E"/>
<path d="M35.5869 28.9639V26.4414C35.5869 26.0957 35.5195 25.7705 35.3848 25.4658C35.2559 25.1553 35.0771 24.8857 34.8486 24.6572C34.6201 24.4287 34.3506 24.25 34.04 24.1211C33.7354 23.9863 33.4102 23.9189 33.0645 23.9189C32.7188 23.9189 32.3906 23.9863 32.0801 24.1211C31.7754 24.25 31.5088 24.4287 31.2803 24.6572C31.0518 24.8857 30.8701 25.1553 30.7354 25.4658C30.6064 25.7705 30.542 26.0957 30.542 26.4414V28.9639H35.5869ZM38.1094 34H35.5869V31.4775H30.542V34H28.0283V26.4414C28.0283 25.7441 28.1602 25.0908 28.4238 24.4814C28.6875 23.8662 29.0449 23.3301 29.4961 22.873C29.9531 22.416 30.4863 22.0557 31.0957 21.792C31.7109 21.5283 32.3672 21.3965 33.0645 21.3965C33.7617 21.3965 34.415 21.5283 35.0244 21.792C35.6396 22.0557 36.1758 22.416 36.6328 22.873C37.0898 23.3301 37.4502 23.8662 37.7139 24.4814C37.9775 25.0908 38.1094 25.7441 38.1094 26.4414V34ZM49.3594 29.21C49.3594 29.9482 49.2334 30.6221 48.9814 31.2314C48.7295 31.8408 48.3867 32.3652 47.9531 32.8047C47.5195 33.2383 47.0098 33.5752 46.4238 33.8154C45.8438 34.0557 45.2197 34.1758 44.5518 34.1758C43.8896 34.1758 43.2656 34.0527 42.6797 33.8066C42.0996 33.5605 41.5898 33.2178 41.1504 32.7783C40.7168 32.3389 40.374 31.8174 40.1221 31.2139C39.8701 30.6045 39.7441 29.9365 39.7441 29.21V20.8428H42.1523V25.2373C42.2812 25.0732 42.4365 24.9268 42.6182 24.7979C42.8057 24.6689 43.0049 24.5635 43.2158 24.4814C43.4326 24.3994 43.6553 24.3379 43.8838 24.2969C44.1123 24.25 44.335 24.2266 44.5518 24.2266C45.2197 24.2266 45.8438 24.3525 46.4238 24.6045C47.0098 24.8506 47.5195 25.1963 47.9531 25.6416C48.3867 26.0869 48.7295 26.6143 48.9814 27.2236C49.2334 27.8271 49.3594 28.4893 49.3594 29.21ZM46.9424 29.21C46.9424 28.8467 46.8779 28.5098 46.749 28.1992C46.626 27.8828 46.4561 27.6104 46.2393 27.3818C46.0225 27.1533 45.7676 26.9746 45.4746 26.8457C45.1875 26.7168 44.8799 26.6523 44.5518 26.6523C44.2236 26.6523 43.9131 26.7256 43.6201 26.8721C43.333 27.0127 43.0811 27.2031 42.8643 27.4434C42.6475 27.6777 42.4775 27.9502 42.3545 28.2607C42.2314 28.5654 42.1699 28.8818 42.1699 29.21C42.1699 29.5732 42.2314 29.9102 42.3545 30.2207C42.4775 30.5312 42.6475 30.8008 42.8643 31.0293C43.0811 31.2578 43.333 31.4395 43.6201 31.5742C43.9131 31.7031 44.2236 31.7676 44.5518 31.7676C44.8799 31.7676 45.1875 31.7031 45.4746 31.5742C45.7676 31.4395 46.0225 31.2578 46.2393 31.0293C46.4561 30.8008 46.626 30.5312 46.749 30.2207C46.8779 29.9102 46.9424 29.5732 46.9424 29.21ZM59.792 29.21C59.792 29.9131 59.666 30.5693 59.4141 31.1787C59.1621 31.7822 58.8193 32.3066 58.3857 32.752C57.9521 33.1914 57.4424 33.54 56.8564 33.7979C56.2764 34.0498 55.6523 34.1758 54.9844 34.1758C54.3223 34.1758 53.6982 34.0498 53.1123 33.7979C52.5322 33.54 52.0225 33.1914 51.583 32.752C51.1494 32.3066 50.8066 31.7822 50.5547 31.1787C50.3027 30.5693 50.1768 29.9131 50.1768 29.21C50.1768 28.4951 50.3027 27.833 50.5547 27.2236C50.8066 26.6143 51.1494 26.0898 51.583 25.6504C52.0225 25.2051 52.5322 24.8564 53.1123 24.6045C53.6982 24.3525 54.3223 24.2266 54.9844 24.2266C55.6523 24.2266 56.2764 24.3467 56.8564 24.5869C57.4424 24.8213 57.9521 25.1582 58.3857 25.5977C58.8193 26.0312 59.1621 26.5557 59.4141 27.1709C59.666 27.7803 59.792 28.46 59.792 29.21ZM57.375 29.21C57.375 28.8232 57.3105 28.4746 57.1816 28.1641C57.0586 27.8477 56.8887 27.5781 56.6719 27.3555C56.4551 27.127 56.2002 26.9541 55.9072 26.8369C55.6201 26.7139 55.3125 26.6523 54.9844 26.6523C54.6562 26.6523 54.3457 26.7139 54.0527 26.8369C53.7656 26.9541 53.5137 27.127 53.2969 27.3555C53.0859 27.5781 52.9189 27.8477 52.7959 28.1641C52.6729 28.4746 52.6113 28.8232 52.6113 29.21C52.6113 29.5732 52.6729 29.9102 52.7959 30.2207C52.9189 30.5312 53.0859 30.8008 53.2969 31.0293C53.5137 31.2578 53.7656 31.4395 54.0527 31.5742C54.3457 31.7031 54.6562 31.7676 54.9844 31.7676C55.3125 31.7676 55.6201 31.7061 55.9072 31.583C56.2002 31.46 56.4551 31.2871 56.6719 31.0645C56.8887 30.8418 57.0586 30.5723 57.1816 30.2559C57.3105 29.9395 57.375 29.5908 57.375 29.21ZM68.0361 32.9014C67.8428 33.0771 67.6348 33.2441 67.4121 33.4023C67.1953 33.5547 66.9668 33.6895 66.7266 33.8066C66.4863 33.918 66.2373 34.0059 65.9795 34.0703C65.7275 34.1406 65.4697 34.1758 65.2061 34.1758C64.626 34.1758 64.0811 34.0732 63.5713 33.8682C63.0615 33.6631 62.6133 33.373 62.2266 32.998C61.8457 32.6172 61.5439 32.1572 61.3213 31.6182C61.1045 31.0732 60.9961 30.4639 60.9961 29.79V24.5869H63.3867V29.79C63.3867 30.1064 63.4336 30.3906 63.5273 30.6426C63.627 30.8887 63.7588 31.0967 63.9229 31.2666C64.0869 31.4365 64.2773 31.5654 64.4941 31.6533C64.7168 31.7412 64.9541 31.7852 65.2061 31.7852C65.4521 31.7852 65.6836 31.7295 65.9004 31.6182C66.123 31.501 66.3164 31.3486 66.4805 31.1611C66.6445 30.9736 66.7734 30.7627 66.8672 30.5283C66.9609 30.2881 67.0078 30.042 67.0078 29.79V24.5869H69.4072V34H68.8271L68.0361 32.9014ZM75.9639 34C75.3838 34 74.8389 33.8916 74.3291 33.6748C73.8193 33.4521 73.3711 33.1504 72.9844 32.7695C72.6035 32.3828 72.3018 31.9346 72.0791 31.4248C71.8623 30.915 71.7539 30.3701 71.7539 29.79V26.9951H70.585V24.6045H71.7539V20.8428H74.1445V24.6045H77.7832V26.9951H74.1445V29.79C74.1445 30.042 74.1914 30.2793 74.2852 30.502C74.3789 30.7188 74.5078 30.9092 74.6719 31.0732C74.8359 31.2373 75.0293 31.3691 75.252 31.4688C75.4746 31.5625 75.7119 31.6094 75.9639 31.6094H77.7832V34H75.9639ZM96.9434 34H94.4297V25C94.4297 24.8242 94.3945 24.6602 94.3242 24.5078C94.2598 24.3555 94.1689 24.2236 94.0518 24.1123C93.9404 23.9951 93.8086 23.9043 93.6562 23.8398C93.5039 23.7754 93.3398 23.7432 93.1641 23.7432C92.9883 23.7432 92.8242 23.7754 92.6719 23.8398C92.5195 23.9043 92.3848 23.9951 92.2676 24.1123C92.1562 24.2236 92.0684 24.3555 92.0039 24.5078C91.9395 24.6602 91.9072 24.8242 91.9072 25V34H89.3848V25C89.3848 24.8242 89.3525 24.6602 89.2881 24.5078C89.2236 24.3555 89.1328 24.2236 89.0156 24.1123C88.9043 23.9951 88.7725 23.9043 88.6201 23.8398C88.4678 23.7754 88.3037 23.7432 88.1279 23.7432C87.9521 23.7432 87.7881 23.7754 87.6357 23.8398C87.4834 23.9043 87.3486 23.9951 87.2314 24.1123C87.1201 24.2236 87.0322 24.3555 86.9678 24.5078C86.9033 24.6602 86.8711 24.8242 86.8711 25V34H84.3486V25C84.3486 24.4785 84.4453 23.9893 84.6387 23.5322C84.8379 23.0693 85.1074 22.668 85.4473 22.3281C85.793 21.9824 86.1943 21.7129 86.6514 21.5195C87.1143 21.3203 87.6064 21.2207 88.1279 21.2207C88.5967 21.2207 89.0479 21.3057 89.4814 21.4756C89.915 21.6396 90.3047 21.8799 90.6504 22.1963C90.9961 21.8799 91.3828 21.6396 91.8105 21.4756C92.2441 21.3057 92.6953 21.2207 93.1641 21.2207C93.6855 21.2207 94.1748 21.3203 94.6318 21.5195C95.0947 21.7129 95.4961 21.9824 95.8359 22.3281C96.1816 22.668 96.4512 23.0693 96.6445 23.5322C96.8438 23.9893 96.9434 24.4785 96.9434 25V34ZM102.586 31.6973C102.68 31.7266 102.773 31.7471 102.867 31.7588C102.961 31.7646 103.055 31.7676 103.148 31.7676C103.383 31.7676 103.608 31.7354 103.825 31.6709C104.042 31.6064 104.244 31.5156 104.432 31.3984C104.625 31.2754 104.795 31.1289 104.941 30.959C105.094 30.7832 105.217 30.5898 105.311 30.3789L107.068 32.1455C106.846 32.4619 106.588 32.7461 106.295 32.998C106.008 33.25 105.694 33.4639 105.354 33.6396C105.021 33.8154 104.666 33.9473 104.291 34.0352C103.922 34.1289 103.541 34.1758 103.148 34.1758C102.486 34.1758 101.862 34.0527 101.276 33.8066C100.696 33.5605 100.187 33.2178 99.7471 32.7783C99.3135 32.3389 98.9707 31.8174 98.7188 31.2139C98.4668 30.6045 98.3408 29.9365 98.3408 29.21C98.3408 28.4658 98.4668 27.7861 98.7188 27.1709C98.9707 26.5557 99.3135 26.0312 99.7471 25.5977C100.187 25.1641 100.696 24.8271 101.276 24.5869C101.862 24.3467 102.486 24.2266 103.148 24.2266C103.541 24.2266 103.925 24.2734 104.3 24.3672C104.675 24.4609 105.029 24.5957 105.363 24.7715C105.703 24.9473 106.02 25.1641 106.312 25.4219C106.605 25.6738 106.863 25.958 107.086 26.2744L102.586 31.6973ZM103.816 26.749C103.705 26.708 103.594 26.6816 103.482 26.6699C103.377 26.6582 103.266 26.6523 103.148 26.6523C102.82 26.6523 102.51 26.7139 102.217 26.8369C101.93 26.9541 101.678 27.124 101.461 27.3467C101.25 27.5693 101.083 27.8389 100.96 28.1553C100.837 28.4658 100.775 28.8174 100.775 29.21C100.775 29.2979 100.778 29.3975 100.784 29.5088C100.796 29.6201 100.811 29.7344 100.828 29.8516C100.852 29.9629 100.878 30.0713 100.907 30.1768C100.937 30.2822 100.975 30.376 101.021 30.458L103.816 26.749Z" fill="#F4851E" fill-opacity="0.8"/>
</g>
<path d="M54 59L71 69L86 59M63.5 59L71 63.5L78 59" stroke="#F4851E" stroke-opacity="0.8"/>
<defs>
<clipPath id="clip0">
<rect width="138" height="49" fill="white" transform="translate(2 3)"/>
</clipPath>
</defs>
</svg>
