<svg width="144" height="71" viewBox="0 0 144 71" fill="none" xmlns="http://www.w3.org/2000/svg">
<g clip-path="url(#clip0)">
<path d="M9.31818 32.697V13.3939H27.0909M130.591 32.697V43.0909H118.045L130.591 23.7879M2 3V52H140V3H2Z" stroke="#F4851E"/>
<path d="M45.6758 34H43.1621V25C43.1621 24.8242 43.127 24.6602 43.0566 24.5078C42.9922 24.3555 42.9014 24.2236 42.7842 24.1123C42.6729 23.9951 42.541 23.9043 42.3887 23.8398C42.2363 23.7754 42.0723 23.7432 41.8965 23.7432C41.7207 23.7432 41.5566 23.7754 41.4043 23.8398C41.252 23.9043 41.1172 23.9951 41 24.1123C40.8887 24.2236 40.8008 24.3555 40.7363 24.5078C40.6719 24.6602 40.6396 24.8242 40.6396 25V34H38.1172V25C38.1172 24.8242 38.085 24.6602 38.0205 24.5078C37.9561 24.3555 37.8652 24.2236 37.748 24.1123C37.6367 23.9951 37.5049 23.9043 37.3525 23.8398C37.2002 23.7754 37.0361 23.7432 36.8604 23.7432C36.6846 23.7432 36.5205 23.7754 36.3682 23.8398C36.2158 23.9043 36.0811 23.9951 35.9639 24.1123C35.8525 24.2236 35.7646 24.3555 35.7002 24.5078C35.6357 24.6602 35.6035 24.8242 35.6035 25V34H33.0811V25C33.0811 24.4785 33.1777 23.9893 33.3711 23.5322C33.5703 23.0693 33.8398 22.668 34.1797 22.3281C34.5254 21.9824 34.9268 21.7129 35.3838 21.5195C35.8467 21.3203 36.3389 21.2207 36.8604 21.2207C37.3291 21.2207 37.7803 21.3057 38.2139 21.4756C38.6475 21.6396 39.0371 21.8799 39.3828 22.1963C39.7285 21.8799 40.1152 21.6396 40.543 21.4756C40.9766 21.3057 41.4277 21.2207 41.8965 21.2207C42.418 21.2207 42.9072 21.3203 43.3643 21.5195C43.8271 21.7129 44.2285 21.9824 44.5684 22.3281C44.9141 22.668 45.1836 23.0693 45.377 23.5322C45.5762 23.9893 45.6758 24.4785 45.6758 25V34ZM49.8418 37.5859V35.1689L51.1777 35.1865C51.4121 35.1865 51.6377 35.1484 51.8545 35.0723C52.0713 34.9961 52.2705 34.8906 52.4521 34.7559C52.6396 34.6211 52.8037 34.46 52.9443 34.2725C53.085 34.0908 53.1992 33.8916 53.2871 33.6748C53.0234 33.7861 52.7539 33.8975 52.4785 34.0088C52.209 34.1201 51.9365 34.1758 51.6611 34.1758C51.0811 34.1758 50.5361 34.0732 50.0264 33.8682C49.5166 33.6631 49.0684 33.373 48.6816 32.998C48.3008 32.6172 47.999 32.1572 47.7764 31.6182C47.5596 31.0732 47.4512 30.4639 47.4512 29.79V24.5869H49.8418V29.79C49.8418 30.124 49.8887 30.417 49.9824 30.6689C50.082 30.915 50.2139 31.123 50.3779 31.293C50.542 31.457 50.7324 31.5801 50.9492 31.6621C51.1719 31.7441 51.4092 31.7852 51.6611 31.7852C51.9072 31.7852 52.1387 31.7295 52.3555 31.6182C52.5781 31.501 52.7715 31.3486 52.9355 31.1611C53.0996 30.9736 53.2285 30.7627 53.3223 30.5283C53.416 30.2881 53.4629 30.042 53.4629 29.79V24.5869H55.8799V32.8135C55.874 33.4756 55.7451 34.0967 55.4932 34.6768C55.2412 35.2568 54.8955 35.7637 54.4561 36.1973C54.0225 36.6309 53.5156 36.9736 52.9355 37.2256C52.3555 37.4775 51.7344 37.6035 51.0723 37.6035L49.8418 37.5859ZM65.5391 23.9189V28.9639H68.0615C68.4072 28.9639 68.7324 28.8994 69.0371 28.7705C69.3418 28.6357 69.6084 28.4541 69.8369 28.2256C70.0654 27.9971 70.2441 27.7305 70.373 27.4258C70.5078 27.1152 70.5752 26.7871 70.5752 26.4414C70.5752 26.0957 70.5078 25.7705 70.373 25.4658C70.2441 25.1553 70.0654 24.8857 69.8369 24.6572C69.6084 24.4287 69.3418 24.25 69.0371 24.1211C68.7324 23.9863 68.4072 23.9189 68.0615 23.9189H65.5391ZM65.5391 34H63.0166V21.3965H68.0615C68.5244 21.3965 68.9697 21.458 69.3975 21.5811C69.8252 21.6982 70.2236 21.8682 70.5928 22.0908C70.9678 22.3076 71.3076 22.5713 71.6123 22.8818C71.9229 23.1865 72.1865 23.5264 72.4033 23.9014C72.626 24.2764 72.7959 24.6777 72.9131 25.1055C73.0361 25.5332 73.0977 25.9785 73.0977 26.4414C73.0977 27.1328 72.9658 27.7861 72.7021 28.4014C72.4385 29.0107 72.0781 29.5439 71.6211 30.001C71.1641 30.458 70.6279 30.8184 70.0127 31.082C69.4033 31.3457 68.7529 31.4775 68.0615 31.4775H65.5391V34ZM76.7451 34H74.3281V20.8428H76.7451V34ZM87.6963 34H87.1162L86.1846 32.708C85.9561 32.9131 85.7129 33.1064 85.4551 33.2881C85.2031 33.4639 84.9365 33.6191 84.6553 33.7539C84.374 33.8828 84.084 33.9854 83.7852 34.0615C83.4922 34.1377 83.1934 34.1758 82.8887 34.1758C82.2266 34.1758 81.6025 34.0645 81.0166 33.8418C80.4365 33.6191 79.9268 33.2969 79.4873 32.875C79.0537 32.4473 78.7109 31.9258 78.459 31.3105C78.207 30.6953 78.0811 29.9951 78.0811 29.21C78.0811 28.4775 78.207 27.8066 78.459 27.1973C78.7109 26.582 79.0537 26.0547 79.4873 25.6152C79.9268 25.1758 80.4365 24.8359 81.0166 24.5957C81.6025 24.3496 82.2266 24.2266 82.8887 24.2266C83.1934 24.2266 83.4951 24.2646 83.7939 24.3408C84.0928 24.417 84.3828 24.5225 84.6641 24.6572C84.9453 24.792 85.2119 24.9502 85.4639 25.1318C85.7217 25.3135 85.9619 25.5098 86.1846 25.7207L87.1162 24.6045H87.6963V34ZM85.2793 29.21C85.2793 28.8818 85.2148 28.5654 85.0859 28.2607C84.9629 27.9502 84.793 27.6777 84.5762 27.4434C84.3594 27.2031 84.1045 27.0127 83.8115 26.8721C83.5244 26.7256 83.2168 26.6523 82.8887 26.6523C82.5605 26.6523 82.25 26.708 81.957 26.8193C81.6699 26.9307 81.418 27.0947 81.2012 27.3115C80.9902 27.5283 80.8232 27.7979 80.7002 28.1201C80.5771 28.4365 80.5156 28.7998 80.5156 29.21C80.5156 29.6201 80.5771 29.9863 80.7002 30.3086C80.8232 30.625 80.9902 30.8916 81.2012 31.1084C81.418 31.3252 81.6699 31.4893 81.957 31.6006C82.25 31.7119 82.5605 31.7676 82.8887 31.7676C83.2168 31.7676 83.5244 31.6973 83.8115 31.5566C84.1045 31.4102 84.3594 31.2197 84.5762 30.9854C84.793 30.7451 84.9629 30.4727 85.0859 30.168C85.2148 29.8574 85.2793 29.5381 85.2793 29.21ZM91.9326 34H89.5332V24.5869H90.1133L90.9043 25.501C91.291 25.1494 91.7275 24.8799 92.2139 24.6924C92.7061 24.499 93.2188 24.4023 93.752 24.4023C94.3262 24.4023 94.8682 24.5137 95.3779 24.7363C95.8877 24.9531 96.333 25.2549 96.7139 25.6416C97.0947 26.0225 97.3936 26.4707 97.6104 26.9863C97.833 27.4961 97.9443 28.041 97.9443 28.6211V34H95.5449V28.6211C95.5449 28.375 95.498 28.1436 95.4043 27.9268C95.3105 27.7041 95.1816 27.5107 95.0176 27.3467C94.8535 27.1826 94.6631 27.0537 94.4463 26.96C94.2295 26.8662 93.998 26.8193 93.752 26.8193C93.5 26.8193 93.2627 26.8662 93.04 26.96C92.8174 27.0537 92.624 27.1826 92.46 27.3467C92.2959 27.5107 92.167 27.7041 92.0732 27.9268C91.9795 28.1436 91.9326 28.375 91.9326 28.6211V34ZM104.826 34H99.3418V31.6094H104.826C104.99 31.6094 105.131 31.5508 105.248 31.4336C105.365 31.3164 105.424 31.1758 105.424 31.0117C105.424 30.8418 105.365 30.7305 105.248 30.6777C105.131 30.625 104.99 30.5986 104.826 30.5986H102.33C101.914 30.5986 101.524 30.5195 101.161 30.3613C100.798 30.2031 100.481 29.9893 100.212 29.7197C99.9424 29.4443 99.7285 29.125 99.5703 28.7617C99.418 28.3984 99.3418 28.0088 99.3418 27.5928C99.3418 27.1768 99.418 26.7871 99.5703 26.4238C99.7285 26.0605 99.9424 25.7441 100.212 25.4746C100.481 25.2051 100.798 24.9941 101.161 24.8418C101.524 24.6836 101.914 24.6045 102.33 24.6045H107.19V26.9951H102.33C102.166 26.9951 102.025 27.0537 101.908 27.1709C101.791 27.2881 101.732 27.4287 101.732 27.5928C101.732 27.7627 101.791 27.9092 101.908 28.0322C102.025 28.1494 102.166 28.208 102.33 28.208H104.826C105.236 28.208 105.623 28.2783 105.986 28.4189C106.35 28.5537 106.666 28.7441 106.936 28.9902C107.205 29.2363 107.419 29.5322 107.577 29.8779C107.735 30.2236 107.814 30.6016 107.814 31.0117C107.814 31.4277 107.735 31.8174 107.577 32.1807C107.419 32.5381 107.205 32.8545 106.936 33.1299C106.666 33.3994 106.35 33.6133 105.986 33.7715C105.623 33.9238 105.236 34 104.826 34Z" fill="#F4851E" fill-opacity="0.8"/>
</g>
<defs>
<clipPath id="clip0">
<rect width="138" height="49" fill="white" transform="translate(2 3)"/>
</clipPath>
</defs>
</svg>
